<mxfile host="app.diagrams.net" modified="2022-06-02T10:58:24.835Z" agent="5.0 (Macintosh; Intel Mac OS X 10_15_7) AppleWebKit/537.36 (KHTML, like Gecko) Chrome/102.0.5005.61 Safari/537.36" etag="0gzBTIAVAA_J332IDOKZ" version="18.1.3" type="github">
  <diagram id="Ql5CRecb75eEknFvZxvK" name="Page-1">
    <mxGraphModel dx="1678" dy="934" grid="1" gridSize="10" guides="1" tooltips="1" connect="1" arrows="1" fold="1" page="1" pageScale="1" pageWidth="827" pageHeight="1169" math="0" shadow="0">
      <root>
        <mxCell id="0" />
        <mxCell id="1" parent="0" />
        <mxCell id="-8ibLIVT_JhwrJ3g7hJs-1" value="" style="rounded=0;whiteSpace=wrap;html=1;fillColor=#f5f5f5;fontColor=#333333;strokeColor=#666666;" vertex="1" parent="1">
          <mxGeometry x="350" y="380" width="800" height="390" as="geometry" />
        </mxCell>
        <mxCell id="-8ibLIVT_JhwrJ3g7hJs-4" value="132.145.115.102 (global ip)" style="rounded=0;whiteSpace=wrap;html=1;fillColor=#dae8fc;strokeColor=#6c8ebf;" vertex="1" parent="1">
          <mxGeometry x="1000" y="730" width="150" height="40" as="geometry" />
        </mxCell>
        <mxCell id="-8ibLIVT_JhwrJ3g7hJs-5" value="OCI Instance(master)" style="rounded=0;whiteSpace=wrap;html=1;fillColor=#f8cecc;strokeColor=#b85450;" vertex="1" parent="1">
          <mxGeometry x="350" y="380" width="160" height="40" as="geometry" />
        </mxCell>
        <mxCell id="-8ibLIVT_JhwrJ3g7hJs-6" value="" style="rounded=0;whiteSpace=wrap;html=1;fillColor=#f5f5f5;fontColor=#333333;strokeColor=#666666;" vertex="1" parent="1">
          <mxGeometry x="1270" y="380" width="770" height="390" as="geometry" />
        </mxCell>
        <mxCell id="-8ibLIVT_JhwrJ3g7hJs-7" value="" style="rounded=0;whiteSpace=wrap;html=1;" vertex="1" parent="1">
          <mxGeometry x="2190" y="380" width="870" height="430" as="geometry" />
        </mxCell>
        <mxCell id="-8ibLIVT_JhwrJ3g7hJs-9" value="PodCIDR:&amp;nbsp;10.244.0.0/24" style="rounded=0;whiteSpace=wrap;html=1;fillColor=#dae8fc;strokeColor=#6c8ebf;" vertex="1" parent="1">
          <mxGeometry x="440" y="470" width="150" height="40" as="geometry" />
        </mxCell>
        <mxCell id="-8ibLIVT_JhwrJ3g7hJs-11" value="138.2.11.162 (global ip)" style="rounded=0;whiteSpace=wrap;html=1;fillColor=#dae8fc;strokeColor=#6c8ebf;" vertex="1" parent="1">
          <mxGeometry x="1890" y="730" width="150" height="40" as="geometry" />
        </mxCell>
        <mxCell id="-8ibLIVT_JhwrJ3g7hJs-13" value="OCI Instance(worker)" style="rounded=0;whiteSpace=wrap;html=1;fillColor=#f8cecc;strokeColor=#b85450;" vertex="1" parent="1">
          <mxGeometry x="1270" y="380" width="160" height="40" as="geometry" />
        </mxCell>
        <mxCell id="-8ibLIVT_JhwrJ3g7hJs-14" value="nginx-deployment&lt;br&gt;&lt;br&gt;IP: 10.244.2.6" style="rounded=1;whiteSpace=wrap;html=1;fillColor=#b0e3e6;strokeColor=#0e8088;" vertex="1" parent="1">
          <mxGeometry x="880" y="780" width="120" height="60" as="geometry" />
        </mxCell>
        <mxCell id="-8ibLIVT_JhwrJ3g7hJs-15" value="nginx-deployment&lt;br&gt;&lt;br&gt;IP: 10.244.1.7" style="rounded=1;whiteSpace=wrap;html=1;fillColor=#b0e3e6;strokeColor=#0e8088;" vertex="1" parent="1">
          <mxGeometry x="1050" y="780" width="120" height="60" as="geometry" />
        </mxCell>
      </root>
    </mxGraphModel>
  </diagram>
</mxfile>
